{"title":"Finding Fanny (2014) DvDScrRip 480p x264 Hindi Audio AC-3 YsB Te","uid":11021736,"size":597841828,"categoryP":"video","categoryS":"movies","magnet":"?xt=urn:btih:98029477fdab9d5d90c082846142f25176ac896e&amp;dn=Finding+Fanny+%282014%29+DvDScrRip+480p+x264+Hindi+Audio+AC-3+YsB+Te&amp;tr=udp%3A%2F%2Ftracker.openbittorrent.com%3A80&amp;tr=udp%3A%2F%2Fopen.demonii.com%3A1337&amp;tr=udp%3A%2F%2Ftracker.coppersurfer.tk%3A6969&amp;tr=udp%3A%2F%2Fexodus.desync.com%3A6969","seeders":1,"leechers":0,"uploader":"Dj_YsB","files":6,"time":1410598561,"description":"Finding Fanny (2014) DvDScrRip 480p x264 Hindi Audio AC-3 YsB TeaM FL\n\nInfo:\nGeneral\nComplete name                            : Finding Fanny (2014) DvDScrRip 480p x264 Hindi Audio AC-3 YsB TeaM FL.mkv\nFormat                                   : Matroska\nFormat version                           : Version 2\nFile size                                : 562 MiB\nDuration                                 : 1h 40mn\nOverall bit rate                         : 780 Kbps\n\nVideo\nID                                       : 1\nFormat                                   : AVC\nDuration                                 : 1h 40mn\nBit rate                                 : 650 Kbps\nWidth                                    : 848 pixels\nHeight                                   : 420 pixels\nFrame rate mode                          : Constant\nFrame rate                               : 29.970 fps\nStream size                              : 459 MiB (82%)\n\nAudio\nID                                       : 2\nFormat                                   : AC-3\nDuration                                 : 1h 40mn\nBit rate                                 : 128 Kbps\nChannel(s)                               : 2 channels\nChannel positions                        : Front: L R\nSampling rate                            : 48.0 KHz\nStream size                              : 92.3 MiB (16%)\n\nScreenShot: &lt;a href=&quot;\nhttp://i.imgur.com/Wn8nXTP.jpg&quot; rel=&quot;nofollow&quot; target=&quot;_NEW&quot;&gt;\nhttp://i.imgur.com/Wn8nXTP.jpg&lt;/a&gt; &lt;a href=&quot;\nhttp://i.imgur.com/xLjmSzv.jpg&quot; rel=&quot;nofollow&quot; target=&quot;_NEW&quot;&gt;\nhttp://i.imgur.com/xLjmSzv.jpg&lt;/a&gt; &lt;a href=&quot;\nhttp://i.imgur.com/ENVjpCu.jpg&quot; rel=&quot;nofollow&quot; target=&quot;_NEW&quot;&gt;\nhttp://i.imgur.com/ENVjpCu.jpg&lt;/a&gt;","torrent":{"xt":"urn:btih:98029477fdab9d5d90c082846142f25176ac896e","amp;dn":"Finding+Fanny+%282014%29+DvDScrRip+480p+x264+Hindi+Audio+AC-3+YsB+Te","amp;tr":["udp%3A%2F%2Ftracker.openbittorrent.com%3A80","udp%3A%2F%2Fopen.demonii.com%3A1337","udp%3A%2F%2Ftracker.coppersurfer.tk%3A6969","udp%3A%2F%2Fexodus.desync.com%3A6969"],"infoHash":"98029477fdab9d5d90c082846142f25176ac896e","infoHashBuffer":{"type":"Buffer","data":[152,2,148,119,253,171,157,93,144,192,130,132,97,66,242,81,118,172,137,110]},"announce":[],"urlList":[]}}